<?xml version="1.0" encoding="UTF-8" standalone="no"?>
<!DOCTYPE svg PUBLIC "-//W3C//DTD SVG 1.1//EN" "http://www.w3.org/Graphics/SVG/1.1/DTD/svg11.dtd">
<svg width="100%" height="100%" viewBox="0 0 471 39" version="1.1" xmlns="http://www.w3.org/2000/svg" xmlns:xlink="http://www.w3.org/1999/xlink" xml:space="preserve" xmlns:serif="http://www.serif.com/" style="fill-rule:evenodd;clip-rule:evenodd;stroke-linecap:round;stroke-linejoin:round;stroke-miterlimit:1.5;">
    <rect x="0" y="0" width="471" height="39"/>
    <path d="M398,9.205C398,7.436 396.564,6 394.795,6L24.205,6C22.436,6 21,7.436 21,9.205L21,29.795C21,31.564 22.436,33 24.205,33L394.795,33C396.564,33 398,31.564 398,29.795L398,9.205Z" style="stroke:rgb(121,121,121);stroke-width:1px;"/>
    <g transform="matrix(1,0,0,1,4.22266,11.0245)">
        <g transform="matrix(24,0,0,24,406.621,17.2645)">
            <path d="M0.425,-0.156C0.435,-0.147 0.439,-0.135 0.439,-0.122C0.439,-0.109 0.435,-0.097 0.425,-0.088C0.415,-0.078 0.404,-0.073 0.391,-0.073C0.377,-0.073 0.366,-0.078 0.356,-0.087L0.112,-0.332C0.102,-0.341 0.098,-0.353 0.098,-0.366C0.098,-0.38 0.103,-0.391 0.112,-0.401L0.356,-0.645C0.366,-0.654 0.377,-0.659 0.391,-0.659C0.404,-0.659 0.415,-0.654 0.425,-0.645C0.435,-0.635 0.439,-0.624 0.439,-0.61C0.439,-0.597 0.435,-0.585 0.425,-0.576L0.215,-0.366L0.425,-0.156Z" style="fill:rgb(121,121,121);fill-rule:nonzero;"/>
        </g>
    </g>
    <g transform="matrix(1,0,0,1,31.2227,11.0245)">
        <g transform="matrix(24,0,0,24,406.621,17.2645)">
            <path d="M0.322,-0.366L0.112,-0.576C0.103,-0.585 0.098,-0.597 0.098,-0.61C0.098,-0.624 0.102,-0.635 0.112,-0.645C0.122,-0.654 0.133,-0.659 0.146,-0.659C0.16,-0.659 0.171,-0.654 0.181,-0.645L0.425,-0.401C0.435,-0.391 0.439,-0.38 0.439,-0.366C0.439,-0.353 0.435,-0.341 0.425,-0.332L0.181,-0.087C0.171,-0.078 0.16,-0.073 0.146,-0.073C0.133,-0.073 0.122,-0.078 0.112,-0.088C0.102,-0.097 0.098,-0.109 0.098,-0.122C0.098,-0.135 0.103,-0.147 0.112,-0.156L0.322,-0.366Z" style="fill:rgb(121,121,121);fill-rule:nonzero;"/>
        </g>
    </g>
</svg>
