<?xml version="1.0" encoding="UTF-8" standalone="no"?>
<svg
   xmlns:dc="http://purl.org/dc/elements/1.1/"
   xmlns:cc="http://creativecommons.org/ns#"
   xmlns:rdf="http://www.w3.org/1999/02/22-rdf-syntax-ns#"
   xmlns:svg="http://www.w3.org/2000/svg"
   xmlns="http://www.w3.org/2000/svg"
   xmlns:sodipodi="http://sodipodi.sourceforge.net/DTD/sodipodi-0.dtd"
   xmlns:inkscape="http://www.inkscape.org/namespaces/inkscape"
   inkscape:version="1.0 (4035a4fb49, 2020-05-01)"
   sodipodi:docname="logo.svg"
   width="38.289413mm"
   height="5.1724963mm"
   viewBox="0 0 38.289413 5.1724963"
   version="1.1"
   id="svg2748">
  <sodipodi:namedview
     inkscape:current-layer="layer1"
     inkscape:window-maximized="1"
     inkscape:window-y="-8"
     inkscape:window-x="-8"
     inkscape:cy="2.1784828"
     inkscape:cx="78.395298"
     inkscape:zoom="5.9120733"
     fit-margin-bottom="0"
     fit-margin-right="0"
     fit-margin-left="0"
     fit-margin-top="0"
     showgrid="false"
     id="namedview18"
     inkscape:window-height="1017"
     inkscape:window-width="1920"
     inkscape:pageshadow="2"
     inkscape:pageopacity="0"
     guidetolerance="10"
     gridtolerance="10"
     objecttolerance="10"
     borderopacity="1"
     bordercolor="#666666"
     pagecolor="#ffffff" />
  <defs
     id="defs2742" />
  <metadata
     id="metadata2745">
    <rdf:RDF>
      <cc:Work
         rdf:about="">
        <dc:format>image/svg+xml</dc:format>
        <dc:type
           rdf:resource="http://purl.org/dc/dcmitype/StillImage" />
        <dc:title></dc:title>
      </cc:Work>
    </rdf:RDF>
  </metadata>
  <g
     id="layer1"
     transform="translate(-29.9505,-132.64113)">
    <path
       style="fill:none;stroke:#bf4d50;stroke-width:0.661458;stroke-linecap:butt;stroke-linejoin:bevel;stroke-miterlimit:4;stroke-dasharray:none;stroke-opacity:1"
       d="m 55.734927,135.33894 h 0.79398 0.661649 l 0.661641,2.36696 1.323289,-4.73394 1.32329,4.73394 1.323279,-4.73394 1.323293,4.73394 0.661638,-2.36696 h 0.661659 0.79398"
       id="path835-3" />
    <path
       style="fill:none;stroke:#bf4d50;stroke-width:0.661458;stroke-linecap:butt;stroke-linejoin:miter;stroke-miterlimit:4;stroke-dasharray:none;stroke-opacity:1"
       d="m 53.088366,137.70589 v -2.36695 c 0,-1.18349 0,-2.36699 1.323281,-2.36699 1.32328,0 1.32328,1.1835 1.32328,2.36699 l -1.1e-5,2.36695"
       id="path829-1" />
    <path
       style="fill:none;stroke:#bf4d50;stroke-width:0.661458;stroke-linecap:butt;stroke-linejoin:miter;stroke-miterlimit:4;stroke-dasharray:none;stroke-opacity:1"
       d="m 65.262625,137.70589 v -4.73394 c 1.323282,0 2.646561,0 2.646561,1.1835 0,1.18349 -1.323279,1.18349 -2.646561,1.18349"
       id="path831-2" />
    <path
       style="fill:none;stroke:#bf4d50;stroke-width:0.661458;stroke-linecap:butt;stroke-linejoin:miter;stroke-miterlimit:4;stroke-dasharray:none;stroke-opacity:1"
       d="m 53.088366,135.33894 h 2.646561"
       id="path837-7" />
    <path
       d="m 30.133945,137.07281 q 0.134055,0.0917 0.373944,0.17639 0.246945,0.0776 0.55739,0.0776 0.395111,0 0.642056,-0.1905 0.246944,-0.19756 0.246944,-0.61384 0,-0.27516 -0.141111,-0.47978 -0.141111,-0.20461 -0.352778,-0.37394 -0.211667,-0.17639 -0.458611,-0.33867 -0.239889,-0.16933 -0.451556,-0.36689 -0.211667,-0.20461 -0.352778,-0.46566 -0.141111,-0.26106 -0.141111,-0.62795 0,-0.59267 0.352778,-0.87489 0.359833,-0.28928 0.931333,-0.28928 0.352778,0 0.627945,0.0635 0.275167,0.0635 0.444501,0.16228 l -0.169334,0.46567 q -0.127,-0.0776 -0.366889,-0.14111 -0.232833,-0.0635 -0.543278,-0.0635 -0.381,0 -0.564445,0.1905 -0.183444,0.18344 -0.183444,0.46567 0,0.24694 0.141111,0.43744 0.141111,0.1905 0.352778,0.35983 0.211667,0.16934 0.451556,0.34573 0.246944,0.16933 0.458611,0.381 0.211667,0.21166 0.352778,0.47977 0.141111,0.26812 0.141111,0.635 0,0.62089 -0.366889,0.97367 -0.366889,0.35278 -1.037167,0.35278 -0.423334,0 -0.698501,-0.0776 -0.268111,-0.0776 -0.430389,-0.17639 z"
       style="font-style:normal;font-variant:normal;font-weight:normal;font-stretch:normal;font-size:7.05556px;line-height:1.25;font-family:'PT Sans Narrow';-inkscape-font-specification:'PT Sans Narrow';letter-spacing:0px;word-spacing:0px;fill:#000000;fill-opacity:1;stroke:none;stroke-width:0.264583"
       id="path847" />
    <path
       d="m 34.019684,136.05681 0.08467,0.8255 h 0.01411 l 0.08467,-0.83962 0.790223,-3.25261 h 0.303389 l 0.790222,3.25967 0.08467,0.83256 h 0.0071 l 0.09878,-0.83962 0.627944,-3.25261 h 0.529167 l -1.100667,5.0165 h -0.324556 l -0.783167,-3.25261 -0.09878,-0.75494 h -0.02117 l -0.09878,0.762 -0.783167,3.24555 H 33.89273 l -1.121834,-5.0165 h 0.571501 z"
       style="font-style:normal;font-variant:normal;font-weight:normal;font-stretch:normal;font-size:7.05556px;line-height:1.25;font-family:'PT Sans Narrow';-inkscape-font-specification:'PT Sans Narrow';letter-spacing:0px;word-spacing:0px;fill:#000000;fill-opacity:1;stroke:none;stroke-width:0.264583"
       id="path849" />
    <path
       d="m 39.646383,136.34608 h -1.397001 l -0.395111,1.38289 h -0.522112 l 1.488724,-5.0165 h 0.289278 l 1.488723,5.0165 H 40.04855 Z m -1.25589,-0.47272 h 1.12889 l -0.430389,-1.524 -0.134056,-0.74083 h -0.01411 l -0.134055,0.75494 z"
       style="font-style:normal;font-variant:normal;font-weight:normal;font-stretch:normal;font-size:7.05556px;line-height:1.25;font-family:'PT Sans Narrow';-inkscape-font-specification:'PT Sans Narrow';letter-spacing:0px;word-spacing:0px;fill:#000000;fill-opacity:1;stroke:none;stroke-width:0.264583"
       id="path851" />
    <path
       d="m 41.838238,134.5963 -0.30339,-0.77611 h -0.02117 l 0.07761,0.77611 v 3.13267 h -0.508 v -5.0165 h 0.3175 l 1.82739,3.20322 0.289278,0.74084 h 0.02822 l -0.07761,-0.74084 v -3.12561 h 0.508 v 5.0165 H 43.65151 Z"
       style="font-style:normal;font-variant:normal;font-weight:normal;font-stretch:normal;font-size:7.05556px;line-height:1.25;font-family:'PT Sans Narrow';-inkscape-font-specification:'PT Sans Narrow';letter-spacing:0px;word-spacing:0px;fill:#000000;fill-opacity:1;stroke:none;stroke-width:0.264583"
       id="path853" />
    <path
       d="m 45.656067,135.44297 h -0.254 v 2.286 H 44.8729 v -4.93889 h 0.529167 v 2.30011 l 0.246944,-0.0988 1.284112,-2.20134 h 0.606778 l -1.291167,2.13078 -0.246945,0.22578 0.289278,0.28222 1.432279,2.30011 h -0.670278 z"
       style="font-style:normal;font-variant:normal;font-weight:normal;font-stretch:normal;font-size:7.05556px;line-height:1.25;font-family:'PT Sans Narrow';-inkscape-font-specification:'PT Sans Narrow';letter-spacing:0px;word-spacing:0px;fill:#000000;fill-opacity:1;stroke:none;stroke-width:0.264583"
       id="path855" />
    <path
       d="m 49.07625,135.76753 -1.312335,-2.97745 h 0.62089 l 0.889,2.15195 0.09172,0.43039 h 0.01411 l 0.09172,-0.4445 0.860778,-2.13784 h 0.571501 l -1.298223,2.97039 v 1.9685 H 49.07625 Z"
       style="font-style:normal;font-variant:normal;font-weight:normal;font-stretch:normal;font-size:7.05556px;line-height:1.25;font-family:'PT Sans Narrow';-inkscape-font-specification:'PT Sans Narrow';letter-spacing:0px;word-spacing:0px;fill:#000000;fill-opacity:1;stroke:none;stroke-width:0.264583"
       id="path857" />
  </g>
</svg>
